
<svg xmlns="http://www.w3.org/2000/svg" xmlns:xlink="http://www.w3.org/1999/xlink" xmlns:serif="http://www.serif.com/" width="100%" height="100%" viewBox="0 0 85 117" xml:space="preserve" style="fill:#fff;stroke:#0e2333;fill-rule:evenodd;clip-rule:evenodd;stroke-linejoin:round;stroke-miterlimit:2;"><path d="M47.095,4.996l-41.683,-0l0,82.52l22.854,0l-0,23.698l18.829,0c17.24,0 31.289,-13.197 31.289,-29.411l-0,-47.39c-0.025,-16.219 -14.049,-29.417 -31.289,-29.417Zm-3.661,98.872l-7.84,-0l-0,-40.05l7.84,0l0,40.05Zm27.603,-22.09c0,11.033 -8.81,20.2 -20.275,21.833l0,-16.332c9.424,-1.127 16.833,-6.052 20.275,-11.627l0,6.126Zm0,-23.691c0,11.025 -8.817,20.168 -20.275,21.801l0,-16.27c9.424,-1.126 16.833,-6.051 20.275,-11.627l0,6.096Zm-23.942,-1.584l-18.829,0l-0,23.692l-15.526,-0l0,-67.871l34.355,-0c13.204,-0 23.942,9.912 23.942,22.089c0,12.178 -10.738,22.09 -23.942,22.09Z" style="fill-rule:nonzero;"></path></svg>